<svg width="25" height="25" viewBox="0 0 25 25" fill="none" xmlns="http://www.w3.org/2000/svg">
<path d="M3.13672 6.22363H5.13672H21.1367" stroke="black" stroke-width="2" stroke-linecap="round" stroke-linejoin="round"/>
<path d="M19.1367 6.22363V20.2236C19.1367 20.7541 18.926 21.2628 18.5509 21.6378C18.1759 22.0129 17.6672 22.2236 17.1367 22.2236H7.13672C6.60629 22.2236 6.09758 22.0129 5.72251 21.6378C5.34743 21.2628 5.13672 20.7541 5.13672 20.2236V6.22363M8.13672 6.22363V4.22363C8.13672 3.6932 8.34743 3.18449 8.72251 2.80942C9.09758 2.43435 9.60629 2.22363 10.1367 2.22363H14.1367C14.6672 2.22363 15.1759 2.43435 15.5509 2.80942C15.926 3.18449 16.1367 3.6932 16.1367 4.22363V6.22363" stroke="black" stroke-width="2" stroke-linecap="round" stroke-linejoin="round"/>
<path d="M10.1367 11.2236V17.2236" stroke="black" stroke-width="2" stroke-linecap="round" stroke-linejoin="round"/>
<path d="M14.1367 11.2236V17.2236" stroke="black" stroke-width="2" stroke-linecap="round" stroke-linejoin="round"/>
</svg>
